<svg width="50" height="50" viewBox="0 0 16 16" fill="none" xmlns="http://www.w3.org/2000/svg">
<path d="M3.1875 0.1875C3.1875 0.0839466 3.10356 0 3 0C2.89645 0 2.8125 0.0839466 2.8125 0.1875V0.672335L2.57009 0.429917C2.49686 0.356694 2.37815 0.356694 2.30492 0.429917C2.2317 0.503141 2.2317 0.621859 2.30492 0.695083L2.8125 1.20267V1.875C2.8125 1.8802 2.81272 1.88535 2.81313 1.89044C2.54066 1.93599 2.30136 2.07947 2.13264 2.28346C2.1284 2.28053 2.12401 2.27774 2.11947 2.27512L1.53721 1.93895L1.35142 1.24558C1.32462 1.14556 1.22181 1.0862 1.12178 1.113C1.02176 1.1398 0.962398 1.24261 0.9892 1.34264L1.07793 1.67379L0.658051 1.43137C0.568371 1.37959 0.453698 1.41032 0.401922 1.5C0.350145 1.58968 0.380871 1.70435 0.470551 1.75613L0.890431 1.99855L0.559282 2.08728C0.459257 2.11408 0.399898 2.21689 0.4267 2.31692C0.453501 2.41694 0.556315 2.4763 0.656339 2.4495L1.34971 2.26371L1.93197 2.59988C1.93643 2.60245 1.94095 2.60482 1.94552 2.60699C1.89991 2.72934 1.87497 2.86176 1.87497 3C1.87497 3.13824 1.89991 3.27066 1.94552 3.39301C1.94096 3.39518 1.93644 3.39755 1.93198 3.40012L1.34972 3.73629L0.656351 3.5505C0.556326 3.5237 0.453513 3.58306 0.426711 3.68308C0.39991 3.78311 0.459269 3.88592 0.559294 3.91272L0.890442 4.00145L0.470563 4.24387C0.380883 4.29565 0.350156 4.41032 0.401933 4.5C0.45371 4.58968 0.568383 4.62041 0.658063 4.56863L1.07794 4.32621L0.989211 4.65736C0.96241 4.75738 1.02177 4.8602 1.12179 4.887C1.22182 4.9138 1.32463 4.85444 1.35143 4.75442L1.53722 4.06105L2.11948 3.72488C2.12402 3.72226 2.12841 3.71948 2.13264 3.71654C2.30136 3.92054 2.54066 4.06401 2.81313 4.10956C2.81272 4.11465 2.8125 4.1198 2.8125 4.125V4.79733L2.30492 5.30492C2.2317 5.37814 2.2317 5.49686 2.30492 5.57008C2.37815 5.64331 2.49686 5.64331 2.57009 5.57008L2.8125 5.32767V5.8125C2.8125 5.91605 2.89645 6 3 6C3.10356 6 3.1875 5.91605 3.1875 5.8125V5.32767L3.42992 5.57008C3.50315 5.64331 3.62186 5.64331 3.69509 5.57008C3.76831 5.49686 3.76831 5.37814 3.69509 5.30492L3.1875 4.79733V4.125C3.1875 4.1198 3.18729 4.11464 3.18688 4.10954C3.45933 4.06399 3.69862 3.92051 3.86732 3.71651C3.87157 3.71946 3.87597 3.72225 3.88053 3.72488L4.46279 4.06105L4.64857 4.75442C4.67538 4.85444 4.77819 4.9138 4.87821 4.887C4.97824 4.8602 5.0376 4.75738 5.0108 4.65736L4.92206 4.32621L5.34194 4.56863C5.43162 4.62041 5.5463 4.58968 5.59807 4.5C5.64985 4.41032 5.61912 4.29565 5.52944 4.24387L5.10957 4.00145L5.44071 3.91272C5.54074 3.88592 5.6001 3.78311 5.5733 3.68308C5.54649 3.58306 5.44368 3.5237 5.34366 3.5505L4.65029 3.73629L4.06803 3.40012C4.06355 3.39754 4.05901 3.39516 4.05443 3.39298C4.10004 3.27064 4.12497 3.13823 4.12497 3C4.12497 2.86177 4.10004 2.72936 4.05443 2.60702C4.05902 2.60484 4.06356 2.60246 4.06804 2.59988L4.6503 2.26371L5.34367 2.4495C5.44369 2.4763 5.54651 2.41694 5.57331 2.31692C5.60011 2.21689 5.54075 2.11408 5.44073 2.08728L5.10958 1.99855L5.52946 1.75613C5.61914 1.70435 5.64986 1.58968 5.59809 1.5C5.54631 1.41032 5.43164 1.37959 5.34196 1.43137L4.92208 1.67379L5.01081 1.34264C5.03761 1.24261 4.97825 1.1398 4.87823 1.113C4.7782 1.0862 4.67539 1.14556 4.64859 1.24558L4.4628 1.93895L3.88054 2.27512C3.87598 2.27775 3.87158 2.28054 3.86733 2.28349C3.69862 2.0795 3.45933 1.93601 3.18688 1.89046C3.18729 1.88536 3.1875 1.8802 3.1875 1.875V1.20267L3.69509 0.695083C3.76831 0.621859 3.76831 0.503141 3.69509 0.429917C3.62186 0.356694 3.50315 0.356694 3.42992 0.429917L3.1875 0.672335V0.1875Z" fill="black"/>
<path d="M2 8L8 8C8.55228 8 9 7.55229 9 7C9 6.44771 8.55228 6 8 6C7.56537 6 7.19429 6.27755 7.05677 6.66662C6.96475 6.92698 6.67909 7.06344 6.41873 6.97142C6.15837 6.8794 6.02191 6.59373 6.11393 6.33338C6.38825 5.55726 7.12841 5 8 5C9.10457 5 10 5.89543 10 7C10 8.10457 9.10457 9 8 9L2 9C1.72386 9 1.5 8.77614 1.5 8.5C1.5 8.22386 1.72386 8 2 8Z" fill="black"/>
<path d="M11.0788 7.37537C11.3563 6.29721 12.3344 5.5 13.5 5.5C14.8807 5.5 16 6.61929 16 8C16 9.39728 14.7593 10.5 13.5 10.5H0.5C0.223858 10.5 0 10.2761 0 10C0 9.72386 0.223858 9.5 0.5 9.5H13.5C14.2407 9.5 15 8.81186 15 8C15 7.17157 14.3284 6.5 13.5 6.5C12.8017 6.5 12.2138 6.97756 12.0472 7.62463C11.9784 7.89206 11.7058 8.05305 11.4384 7.98422C11.171 7.91539 11.01 7.6428 11.0788 7.37537Z" fill="black"/>
<path d="M2.5 11.5C2.5 11.2239 2.72386 11 3 11L11 11C12.1046 11 13 11.8954 13 13C13 14.1046 12.1046 15 11 15C10.1284 15 9.38825 14.4427 9.11393 13.6666C9.02191 13.4063 9.15837 13.1206 9.41873 13.0286C9.67909 12.9366 9.96475 13.073 10.0568 13.3334C10.1943 13.7224 10.5654 14 11 14C11.5523 14 12 13.5523 12 13C12 12.4477 11.5523 12 11 12L3 12C2.72386 12 2.5 11.7761 2.5 11.5Z" fill="black"/>
</svg>
