<svg width="16" height="16" viewBox="0 0 16 16" fill="none" xmlns="http://www.w3.org/2000/svg">
<path d="M6.49707 3.07718C6.41223 3.11569 6.32017 3.13574 6.227 3.13601C6.06733 3.13534 5.91336 3.07664 5.79377 2.97085C5.67418 2.86506 5.59713 2.7194 5.577 2.56101L5.44 1.48401C5.41845 1.31143 5.46611 1.13735 5.57254 0.999806C5.67898 0.862265 5.83554 0.772454 6.008 0.750006C6.1802 0.731379 6.35292 0.78027 6.48981 0.886391C6.62671 0.992512 6.71711 1.14759 6.742 1.31901L6.878 2.39601C6.88961 2.48845 6.88145 2.58232 6.85407 2.67138C6.82669 2.76044 6.7807 2.84267 6.71916 2.91263C6.65762 2.98258 6.58192 3.03867 6.49707 3.07718Z" fill="black"/>
<path d="M3.12201 4.78384C3.03884 4.76106 2.961 4.72203 2.893 4.66901L2.036 4.00401C1.89885 3.89681 1.80961 3.73977 1.78769 3.56709C1.76578 3.39441 1.81297 3.22006 1.919 3.08201C2.02583 2.94499 2.18252 2.85579 2.35488 2.83388C2.52723 2.81196 2.70126 2.85909 2.839 2.96501L3.696 3.62901C3.83359 3.73589 3.92318 3.89297 3.94511 4.06582C3.96705 4.23866 3.91953 4.41315 3.813 4.55101C3.76057 4.61948 3.6951 4.67689 3.62037 4.71992C3.54564 4.76296 3.46312 4.79076 3.37759 4.80173C3.29205 4.8127 3.20519 4.80662 3.12201 4.78384Z" fill="black"/>
<path d="M2.71975 6.8766C2.8565 6.9829 2.9463 7.13843 2.97 7.31001C2.99154 7.48258 2.94388 7.65666 2.83745 7.79421C2.73101 7.93175 2.57445 8.02156 2.402 8.04401L1.327 8.18201C1.15407 8.20402 0.979491 8.15644 0.841651 8.04973C0.703812 7.94302 0.614008 7.78593 0.591995 7.61301C0.569982 7.44008 0.617564 7.2655 0.724272 7.12766C0.777108 7.05941 0.84287 7.00224 0.917804 6.9594C0.992737 6.91656 1.07537 6.88891 1.161 6.87801L2.238 6.74101C2.41012 6.72164 2.58299 6.7703 2.71975 6.8766Z" fill="black"/>
<path d="M2.676 11.009L3.34 10.15C3.39085 10.0767 3.4561 10.0146 3.53176 9.96732C3.60742 9.92008 3.69191 9.88873 3.78007 9.8752C3.86824 9.86167 3.95824 9.86623 4.04458 9.88861C4.13093 9.91099 4.21181 9.95072 4.28231 10.0054C4.3528 10.06 4.41143 10.1285 4.45461 10.2065C4.4978 10.2846 4.52464 10.3706 4.5335 10.4593C4.54236 10.5481 4.53305 10.6377 4.50614 10.7228C4.47924 10.8078 4.43529 10.8865 4.377 10.954L3.713 11.813C3.66082 11.8818 3.59546 11.9395 3.52073 11.9828C3.446 12.0261 3.3634 12.054 3.27775 12.065C3.1921 12.076 3.10512 12.0698 3.02189 12.0468C2.93866 12.0238 2.86085 11.9844 2.793 11.931C2.65585 11.8238 2.56661 11.6668 2.54469 11.4941C2.52278 11.3214 2.56997 11.1471 2.676 11.009Z" fill="black"/>
<path d="M6.74809 4.06846C7.38584 4.02421 7.99085 4.18267 8.50002 4.48895V5.7901C8.10303 5.30865 7.48728 5.01957 6.81731 5.06606C5.71539 5.14252 4.88409 6.09778 4.96055 7.1997C5.03434 8.26324 5.92679 9.07469 6.97961 9.06118L6.65125 10.0463C5.22413 9.90239 4.06559 8.74823 3.96295 7.26892C3.84826 5.61604 5.09521 4.18315 6.74809 4.06846Z" fill="black"/>
<path d="M10.5 3C10.2239 3 10 3.22386 10 3.5V9.56301C9.13739 9.78503 8.5 10.5681 8.5 11.5C8.5 12.6046 9.39543 13.5 10.5 13.5C11.6046 13.5 12.5 12.6046 12.5 11.5C12.5 10.5681 11.8626 9.78503 11 9.56301V3.5C11 3.22386 10.7761 3 10.5 3Z" fill="black"/>
<path d="M9.2 8.39855L8.66751 8.75498C7.7801 9.349 7.2 10.357 7.2 11.5C7.2 13.3225 8.67746 14.8 10.5 14.8C12.3225 14.8 13.8 13.3225 13.8 11.5C13.8 10.357 13.2199 9.349 12.3325 8.75498L11.8 8.39855V2.5C11.8 1.78203 11.218 1.2 10.5 1.2C9.78203 1.2 9.2 1.78203 9.2 2.5V8.39855ZM8 2.5C8 1.11929 9.11929 0 10.5 0C11.8807 0 13 1.11929 13 2.5V7.75777C14.206 8.56504 15 9.93979 15 11.5C15 13.9853 12.9853 16 10.5 16C8.01472 16 6 13.9853 6 11.5C6 9.93979 6.79401 8.56504 8 7.75777V2.5Z" fill="black"/>
</svg>
