<svg width="50" height="50" viewBox="0 0 16 16" fill="none" xmlns="http://www.w3.org/2000/svg">
<path d="M12.7188 9.21875C12.7188 9.09794 12.6208 9 12.5 9C12.3792 9 12.2813 9.09794 12.2813 9.21875V9.78439L11.9984 9.50157C11.913 9.41614 11.7745 9.41614 11.6891 9.50157C11.6037 9.587 11.6037 9.7255 11.6891 9.81093L12.2813 10.4031V11.1875C12.2813 11.1936 12.2815 11.1996 12.282 11.2055C11.9641 11.2587 11.6849 11.426 11.4881 11.664C11.4831 11.6606 11.478 11.6574 11.4727 11.6543L10.7934 11.2621L10.5767 10.4532C10.5454 10.3365 10.4255 10.2672 10.3088 10.2985C10.1921 10.3298 10.1228 10.4497 10.1541 10.5664L10.2576 10.9528L9.76774 10.6699C9.66311 10.6095 9.52932 10.6454 9.46892 10.75C9.40851 10.8546 9.44436 10.9884 9.54899 11.0488L10.0388 11.3316L9.65251 11.4352C9.53581 11.4664 9.46656 11.5864 9.49783 11.7031C9.5291 11.8198 9.64904 11.889 9.76574 11.8577L10.5747 11.641L11.254 12.0332C11.2592 12.0362 11.2645 12.039 11.2698 12.0415C11.2166 12.1842 11.1875 12.3387 11.1875 12.5C11.1875 12.6613 11.2166 12.8158 11.2698 12.9585C11.2645 12.961 11.2592 12.9638 11.254 12.9668L10.5747 13.359L9.76575 13.1422C9.64906 13.111 9.52911 13.1802 9.49784 13.2969C9.46657 13.4136 9.53582 13.5336 9.65252 13.5648L10.0389 13.6684L9.549 13.9512C9.44437 14.0116 9.40853 14.1454 9.46893 14.25C9.52934 14.3546 9.66312 14.3905 9.76775 14.3301L10.2576 14.0472L10.1541 14.4336C10.1228 14.5503 10.1921 14.6702 10.3088 14.7015C10.4255 14.7328 10.5454 14.6635 10.5767 14.5468L10.7934 13.7379L11.4727 13.3457C11.478 13.3426 11.4832 13.3394 11.4881 13.336C11.6849 13.574 11.9641 13.7413 12.282 13.7945C12.2815 13.8004 12.2813 13.8064 12.2813 13.8125V14.5969L11.6891 15.1891C11.6037 15.2745 11.6037 15.413 11.6891 15.4984C11.7745 15.5839 11.913 15.5839 11.9984 15.4984L12.2813 15.2156V15.7812C12.2813 15.9021 12.3792 16 12.5 16C12.6208 16 12.7188 15.9021 12.7188 15.7812V15.2156L13.0016 15.4984C13.087 15.5839 13.2255 15.5839 13.3109 15.4984C13.3964 15.413 13.3964 15.2745 13.3109 15.1891L12.7188 14.5969V13.8125C12.7188 13.8064 12.7185 13.8004 12.718 13.7945C13.0359 13.7413 13.3151 13.5739 13.5119 13.3359C13.5168 13.3394 13.522 13.3426 13.5273 13.3457L14.2066 13.7379L14.4233 14.5468C14.4546 14.6635 14.5746 14.7328 14.6913 14.7015C14.808 14.6702 14.8772 14.5503 14.8459 14.4336L14.7424 14.0472L15.2323 14.3301C15.3369 14.3905 15.4707 14.3546 15.5311 14.25C15.5915 14.1454 15.5557 14.0116 15.451 13.9512L14.9612 13.6684L15.3475 13.5648C15.4642 13.5336 15.5335 13.4136 15.5022 13.2969C15.4709 13.1802 15.351 13.111 15.2343 13.1422L14.4253 13.359L13.746 12.9668C13.7408 12.9638 13.7355 12.961 13.7302 12.9585C13.7834 12.8158 13.8125 12.6613 13.8125 12.5C13.8125 12.3387 13.7834 12.1842 13.7302 12.0415C13.7355 12.039 13.7408 12.0362 13.7461 12.0332L14.4254 11.641L15.2343 11.8577C15.351 11.889 15.4709 11.8198 15.5022 11.7031C15.5335 11.5864 15.4642 11.4664 15.3475 11.4352L14.9612 11.3316L15.451 11.0488C15.5557 10.9884 15.5915 10.8546 15.5311 10.75C15.4707 10.6454 15.3369 10.6095 15.2323 10.6699L14.7424 10.9528L14.846 10.5664C14.8772 10.4497 14.808 10.3298 14.6913 10.2985C14.5746 10.2672 14.4546 10.3365 14.4234 10.4532L14.2066 11.2621L13.5273 11.6543C13.522 11.6574 13.5168 11.6606 13.5119 11.6641C13.3151 11.4261 13.0359 11.2587 12.718 11.2055C12.7185 11.1996 12.7188 11.1936 12.7188 11.1875V10.4031L13.3109 9.81093C13.3964 9.7255 13.3964 9.587 13.3109 9.50157C13.2255 9.41614 13.087 9.41614 13.0016 9.50157L12.7188 9.78439V9.21875Z" fill="black"/>
<path d="M0.5 1.5C0.223858 1.5 0 1.72386 0 2C0 2.27614 0.223858 2.5 0.5 2.5H15.5C15.7761 2.5 16 2.27614 16 2C16 1.72386 15.7761 1.5 15.5 1.5H0.5Z" fill="black"/>
<path d="M0.5 4C0.223858 4 0 4.22386 0 4.5C0 4.77614 0.223858 5 0.5 5H8.5C8.77614 5 9 4.77614 9 4.5C9 4.22386 8.77614 4 8.5 4H0.5Z" fill="black"/>
<path d="M7 7C7 6.72386 7.22386 6.5 7.5 6.5H15.5C15.7761 6.5 16 6.72386 16 7C16 7.27614 15.7761 7.5 15.5 7.5H7.5C7.22386 7.5 7 7.27614 7 7Z" fill="black"/>
<path d="M10.5 4C10.2239 4 10 4.22386 10 4.5C10 4.77614 10.2239 5 10.5 5H15.5C15.7761 5 16 4.77614 16 4.5C16 4.22386 15.7761 4 15.5 4H10.5Z" fill="black"/>
<path d="M0 7C0 6.72386 0.223858 6.5 0.5 6.5H5.5C5.77614 6.5 6 6.72386 6 7C6 7.27614 5.77614 7.5 5.5 7.5H0.5C0.223858 7.5 0 7.27614 0 7Z" fill="black"/>
<path d="M0.5 9C0.223858 9 0 9.22386 0 9.5C0 9.77614 0.223858 10 0.5 10H8.5C8.77614 10 9 9.77614 9 9.5C9 9.22386 8.77614 9 8.5 9H0.5Z" fill="black"/>
</svg>
