<svg width="16" height="16" viewBox="0 0 16 16" fill="none" xmlns="http://www.w3.org/2000/svg">
<path d="M2 6L8 6C8.55228 6 9 5.55229 9 5C9 4.44771 8.55228 4 8 4C7.56537 4 7.19429 4.27755 7.05677 4.66662C6.96475 4.92698 6.67909 5.06344 6.41873 4.97142C6.15837 4.8794 6.02191 4.59373 6.11393 4.33338C6.38825 3.55726 7.12841 3 8 3C9.10457 3 10 3.89543 10 5C10 6.10457 9.10457 7 8 7L2 7C1.72386 7 1.5 6.77614 1.5 6.5C1.5 6.22386 1.72386 6 2 6Z" fill="black"/>
<path d="M11.0788 5.37537C11.3563 4.29721 12.3344 3.5 13.5 3.5C14.8807 3.5 16 4.61929 16 6C16 7.39728 14.7593 8.5 13.5 8.5H0.5C0.223858 8.5 0 8.27614 0 8C0 7.72386 0.223858 7.5 0.5 7.5H13.5C14.2407 7.5 15 6.81186 15 6C15 5.17157 14.3284 4.5 13.5 4.5C12.8017 4.5 12.2138 4.97756 12.0472 5.62463C11.9784 5.89206 11.7058 6.05305 11.4384 5.98422C11.171 5.91539 11.01 5.6428 11.0788 5.37537Z" fill="black"/>
<path d="M2.5 9.5C2.5 9.22386 2.72386 9 3 9L11 9C12.1046 9 13 9.89543 13 11C13 12.1046 12.1046 13 11 13C10.1284 13 9.38825 12.4427 9.11393 11.6666C9.02191 11.4063 9.15837 11.1206 9.41873 11.0286C9.67909 10.9366 9.96475 11.073 10.0568 11.3334C10.1943 11.7224 10.5654 12 11 12C11.5523 12 12 11.5523 12 11C12 10.4477 11.5523 10 11 10L3 10C2.72386 10 2.5 9.77614 2.5 9.5Z" fill="black"/>
</svg>
