<svg width="50" height="50" viewBox="0 0 16 16" fill="none" xmlns="http://www.w3.org/2000/svg">
<path d="M3.1875 0.1875C3.1875 0.0839466 3.10356 0 3 0C2.89645 0 2.8125 0.0839466 2.8125 0.1875V0.672335L2.57009 0.429917C2.49686 0.356694 2.37815 0.356694 2.30492 0.429917C2.2317 0.503141 2.2317 0.621859 2.30492 0.695083L2.8125 1.20267V1.875C2.8125 1.8802 2.81272 1.88535 2.81313 1.89044C2.54066 1.93599 2.30136 2.07947 2.13264 2.28346C2.1284 2.28053 2.12401 2.27774 2.11947 2.27512L1.53721 1.93895L1.35142 1.24558C1.32462 1.14556 1.22181 1.0862 1.12178 1.113C1.02176 1.1398 0.962398 1.24261 0.9892 1.34264L1.07793 1.67379L0.658051 1.43137C0.568371 1.37959 0.453698 1.41032 0.401922 1.5C0.350145 1.58968 0.380871 1.70435 0.470551 1.75613L0.890431 1.99855L0.559282 2.08728C0.459257 2.11408 0.399898 2.21689 0.4267 2.31692C0.453501 2.41694 0.556315 2.4763 0.656339 2.4495L1.34971 2.26371L1.93197 2.59988C1.93643 2.60245 1.94095 2.60482 1.94552 2.60699C1.89991 2.72934 1.87497 2.86176 1.87497 3C1.87497 3.13824 1.89991 3.27066 1.94552 3.39301C1.94096 3.39518 1.93644 3.39755 1.93198 3.40012L1.34972 3.73629L0.656351 3.5505C0.556326 3.5237 0.453513 3.58306 0.426711 3.68308C0.39991 3.78311 0.459269 3.88592 0.559294 3.91272L0.890442 4.00145L0.470563 4.24387C0.380883 4.29565 0.350156 4.41032 0.401933 4.5C0.45371 4.58968 0.568383 4.62041 0.658063 4.56863L1.07794 4.32621L0.989211 4.65736C0.96241 4.75738 1.02177 4.8602 1.12179 4.887C1.22182 4.9138 1.32463 4.85444 1.35143 4.75442L1.53722 4.06105L2.11948 3.72488C2.12402 3.72226 2.12841 3.71948 2.13264 3.71654C2.30136 3.92054 2.54066 4.06401 2.81313 4.10956C2.81272 4.11465 2.8125 4.1198 2.8125 4.125V4.79733L2.30492 5.30492C2.2317 5.37814 2.2317 5.49686 2.30492 5.57008C2.37815 5.64331 2.49686 5.64331 2.57009 5.57008L2.8125 5.32767V5.8125C2.8125 5.91605 2.89645 6 3 6C3.10356 6 3.1875 5.91605 3.1875 5.8125V5.32767L3.42992 5.57008C3.50315 5.64331 3.62186 5.64331 3.69509 5.57008C3.76831 5.49686 3.76831 5.37814 3.69509 5.30492L3.1875 4.79733V4.125C3.1875 4.1198 3.18729 4.11464 3.18688 4.10954C3.45933 4.06399 3.69862 3.92051 3.86732 3.71651C3.87157 3.71946 3.87597 3.72225 3.88053 3.72488L4.46279 4.06105L4.64857 4.75442C4.67538 4.85444 4.77819 4.9138 4.87821 4.887C4.97824 4.8602 5.0376 4.75738 5.0108 4.65736L4.92206 4.32621L5.34194 4.56863C5.43162 4.62041 5.5463 4.58968 5.59807 4.5C5.64985 4.41032 5.61912 4.29565 5.52944 4.24387L5.10957 4.00145L5.44071 3.91272C5.54074 3.88592 5.6001 3.78311 5.5733 3.68308C5.54649 3.58306 5.44368 3.5237 5.34366 3.5505L4.65029 3.73629L4.06803 3.40012C4.06355 3.39754 4.05901 3.39516 4.05443 3.39298C4.10004 3.27064 4.12497 3.13823 4.12497 3C4.12497 2.86177 4.10004 2.72936 4.05443 2.60702C4.05902 2.60484 4.06356 2.60246 4.06804 2.59988L4.6503 2.26371L5.34367 2.4495C5.44369 2.4763 5.54651 2.41694 5.57331 2.31692C5.60011 2.21689 5.54075 2.11408 5.44073 2.08728L5.10958 1.99855L5.52946 1.75613C5.61914 1.70435 5.64986 1.58968 5.59809 1.5C5.54631 1.41032 5.43164 1.37959 5.34196 1.43137L4.92208 1.67379L5.01081 1.34264C5.03761 1.24261 4.97825 1.1398 4.87823 1.113C4.7782 1.0862 4.67539 1.14556 4.64859 1.24558L4.4628 1.93895L3.88054 2.27512C3.87598 2.27775 3.87158 2.28054 3.86733 2.28349C3.69862 2.0795 3.45933 1.93601 3.18688 1.89046C3.18729 1.88536 3.1875 1.8802 3.1875 1.875V1.20267L3.69509 0.695083C3.76831 0.621859 3.76831 0.503141 3.69509 0.429917C3.62186 0.356694 3.50315 0.356694 3.42992 0.429917L3.1875 0.672335V0.1875Z" fill="black"/>
<path d="M6.12504 12.125C6.12504 12.056 6.06908 12 6.00004 12C5.93101 12 5.87504 12.056 5.87504 12.125V12.4482L5.71343 12.2866C5.66462 12.2378 5.58547 12.2378 5.53666 12.2866C5.48784 12.3354 5.48784 12.4146 5.53666 12.4634L5.87504 12.8018V13.25C5.87504 13.2535 5.87519 13.2569 5.87546 13.2603C5.69381 13.2907 5.53428 13.3863 5.4218 13.5223C5.41898 13.5204 5.41605 13.5185 5.41302 13.5167L5.02485 13.2926L4.90099 12.8304C4.88312 12.7637 4.81458 12.7241 4.7479 12.742C4.68121 12.7599 4.64164 12.8284 4.65951 12.8951L4.71866 13.1159L4.43874 12.9542C4.37896 12.9197 4.30251 12.9402 4.26799 13C4.23347 13.0598 4.25396 13.1362 4.31374 13.1708L4.59366 13.3324L4.3729 13.3915C4.30621 13.4094 4.26664 13.4779 4.28451 13.5446C4.30237 13.6113 4.37092 13.6509 4.4376 13.633L4.89985 13.5091L5.28802 13.7333C5.29099 13.735 5.29401 13.7365 5.29706 13.738C5.26664 13.8196 5.25002 13.9078 5.25002 14C5.25002 14.0922 5.26664 14.1804 5.29706 14.262C5.29401 14.2635 5.291 14.265 5.28803 14.2667L4.89986 14.4909L4.43761 14.367C4.37092 14.3491 4.30238 14.3887 4.28451 14.4554C4.26665 14.5221 4.30622 14.5906 4.3729 14.6085L4.59367 14.6676L4.31375 14.8292C4.25396 14.8638 4.23348 14.9402 4.268 15C4.30251 15.0598 4.37896 15.0803 4.43875 15.0458L4.71867 14.8841L4.65951 15.1049C4.64165 15.1716 4.68122 15.2401 4.7479 15.258C4.81459 15.2759 4.88313 15.2363 4.901 15.1696L5.02486 14.7074L5.41303 14.4833C5.41605 14.4815 5.41898 14.4797 5.4218 14.4777C5.53428 14.6137 5.69382 14.7093 5.87546 14.7397C5.87519 14.7431 5.87504 14.7465 5.87504 14.75V15.1982L5.53666 15.5366C5.48784 15.5854 5.48784 15.6646 5.53666 15.7134C5.58547 15.7622 5.66462 15.7622 5.71343 15.7134L5.87504 15.5518V15.875C5.87504 15.944 5.93101 16 6.00004 16C6.06908 16 6.12504 15.944 6.12504 15.875V15.5518L6.28666 15.7134C6.33547 15.7622 6.41462 15.7622 6.46343 15.7134C6.51225 15.6646 6.51225 15.5854 6.46343 15.5366L6.12504 15.1982V14.75C6.12504 14.7465 6.1249 14.7431 6.12463 14.7397C6.30626 14.7093 6.46579 14.6137 6.57826 14.4777C6.58109 14.4796 6.58402 14.4815 6.58706 14.4833L6.97523 14.7074L7.09909 15.1696C7.11696 15.2363 7.1855 15.2759 7.25218 15.258C7.31887 15.2401 7.35844 15.1716 7.34057 15.1049L7.28142 14.8841L7.56134 15.0458C7.62112 15.0803 7.69757 15.0598 7.73209 15C7.76661 14.9402 7.74612 14.8638 7.68634 14.8292L7.40642 14.6676L7.62718 14.6085C7.69387 14.5906 7.73344 14.5221 7.71557 14.4554C7.6977 14.3887 7.62916 14.3491 7.56248 14.367L7.10023 14.4909L6.71206 14.2667C6.70908 14.265 6.70605 14.2634 6.70299 14.262C6.7334 14.1804 6.75002 14.0922 6.75002 14C6.75002 13.9078 6.7334 13.8196 6.70299 13.738C6.70605 13.7366 6.70908 13.735 6.71207 13.7333L7.10024 13.5091L7.56249 13.633C7.62917 13.6509 7.69771 13.6113 7.71558 13.5446C7.73345 13.4779 7.69387 13.4094 7.62719 13.3915L7.40643 13.3324L7.68635 13.1708C7.74613 13.1362 7.76662 13.0598 7.7321 13C7.69758 12.9402 7.62113 12.9197 7.56135 12.9542L7.28143 13.1159L7.34058 12.8951C7.35845 12.8284 7.31887 12.7599 7.25219 12.742C7.18551 12.7241 7.11697 12.7637 7.0991 12.8304L6.97524 13.2926L6.58707 13.5167C6.58403 13.5185 6.58109 13.5204 6.57826 13.5223C6.46579 13.3863 6.30626 13.2907 6.12463 13.2603C6.1249 13.2569 6.12504 13.2535 6.12504 13.25V12.8018L6.46343 12.4634C6.51225 12.4146 6.51225 12.3354 6.46343 12.2866C6.41462 12.2378 6.33547 12.2378 6.28666 12.2866L6.12504 12.4482V12.125Z" fill="black"/>
<path d="M11.125 1.125C11.125 1.05596 11.0691 1 11 1C10.931 1 10.875 1.05596 10.875 1.125V1.44822L10.7134 1.28661C10.6646 1.2378 10.5855 1.2378 10.5367 1.28661C10.4878 1.33543 10.4878 1.41457 10.5367 1.46339L10.875 1.80178V2.25C10.875 2.25347 10.8752 2.2569 10.8755 2.2603C10.6938 2.29066 10.5343 2.38631 10.4218 2.52231C10.419 2.52035 10.416 2.51849 10.413 2.51675L10.0248 2.29263L9.90099 1.83039C9.88312 1.7637 9.81458 1.72413 9.7479 1.742C9.68121 1.75987 9.64164 1.82841 9.65951 1.89509L9.71866 2.11586L9.43874 1.95425C9.37896 1.91973 9.30251 1.94021 9.26799 2C9.23347 2.05979 9.25396 2.13623 9.31374 2.17075L9.59366 2.33236L9.3729 2.39152C9.30621 2.40939 9.26664 2.47793 9.28451 2.54461C9.30237 2.61129 9.37092 2.65087 9.4376 2.633L9.89985 2.50914L10.288 2.73325C10.291 2.73497 10.294 2.73655 10.2971 2.738C10.2666 2.81956 10.25 2.90784 10.25 3C10.25 3.09216 10.2666 3.18044 10.2971 3.26201C10.294 3.26345 10.291 3.26503 10.288 3.26675L9.89986 3.49086L9.43761 3.367C9.37092 3.34913 9.30238 3.3887 9.28451 3.45539C9.26665 3.52207 9.30622 3.59061 9.3729 3.60848L9.59367 3.66763L9.31375 3.82925C9.25396 3.86376 9.23348 3.94021 9.268 4C9.30251 4.05979 9.37896 4.08027 9.43875 4.04575L9.71867 3.88414L9.65951 4.10491C9.64165 4.17159 9.68122 4.24013 9.7479 4.258C9.81459 4.27587 9.88313 4.23629 9.901 4.16961L10.0249 3.70736L10.413 3.48325C10.4161 3.4815 10.419 3.47965 10.4218 3.4777C10.5343 3.61369 10.6938 3.70934 10.8755 3.7397C10.8752 3.7431 10.875 3.74653 10.875 3.75V4.19822L10.5367 4.53661C10.4878 4.58543 10.4878 4.66457 10.5367 4.71339C10.5855 4.7622 10.6646 4.7622 10.7134 4.71339L10.875 4.55178V4.875C10.875 4.94404 10.931 5 11 5C11.0691 5 11.125 4.94404 11.125 4.875V4.55178L11.2867 4.71339C11.3355 4.7622 11.4146 4.7622 11.4634 4.71339C11.5122 4.66457 11.5122 4.58543 11.4634 4.53661L11.125 4.19822V3.75C11.125 3.74653 11.1249 3.74309 11.1246 3.7397C11.3063 3.70932 11.4658 3.61367 11.5783 3.47768C11.5811 3.47964 11.584 3.4815 11.5871 3.48325L11.9752 3.70736L12.0991 4.16961C12.117 4.23629 12.1855 4.27587 12.2522 4.258C12.3189 4.24013 12.3584 4.17159 12.3406 4.10491L12.2814 3.88414L12.5613 4.04575C12.6211 4.08027 12.6976 4.05979 12.7321 4C12.7666 3.94021 12.7461 3.86376 12.6863 3.82925L12.4064 3.66763L12.6272 3.60848C12.6939 3.59061 12.7334 3.52207 12.7156 3.45539C12.6977 3.3887 12.6292 3.34913 12.5625 3.367L12.1002 3.49086L11.7121 3.26675C11.7091 3.26502 11.7061 3.26344 11.703 3.26199C11.7334 3.18043 11.75 3.09216 11.75 3C11.75 2.90784 11.7334 2.81957 11.703 2.73801C11.7061 2.73656 11.7091 2.73498 11.7121 2.73325L12.1002 2.50914L12.5625 2.633C12.6292 2.65087 12.6977 2.61129 12.7156 2.54461C12.7334 2.47793 12.6939 2.40939 12.6272 2.39152L12.4064 2.33236L12.6863 2.17075C12.7461 2.13623 12.7666 2.05979 12.7321 2C12.6976 1.94021 12.6211 1.91973 12.5613 1.95425L12.2814 2.11586L12.3406 1.89509C12.3584 1.82841 12.3189 1.75987 12.2522 1.742C12.1855 1.72413 12.117 1.7637 12.0991 1.83039L11.9752 2.29263L11.5871 2.51675C11.584 2.5185 11.5811 2.52036 11.5783 2.52233C11.4658 2.38633 11.3063 2.29068 11.1246 2.2603C11.1249 2.25691 11.125 2.25347 11.125 2.25V1.80178L11.4634 1.46339C11.5122 1.41457 11.5122 1.33543 11.4634 1.28661C11.4146 1.2378 11.3355 1.2378 11.2867 1.28661L11.125 1.44822V1.125Z" fill="black"/>
<path d="M2 7L8 7C8.55228 7 9 6.55229 9 6C9 5.44771 8.55228 5 8 5C7.56537 5 7.19429 5.27755 7.05677 5.66662C6.96475 5.92698 6.67909 6.06344 6.41873 5.97142C6.15837 5.8794 6.02191 5.59373 6.11393 5.33338C6.38825 4.55726 7.12841 4 8 4C9.10457 4 10 4.89543 10 6C10 7.10457 9.10457 8 8 8L2 8C1.72386 8 1.5 7.77614 1.5 7.5C1.5 7.22386 1.72386 7 2 7Z" fill="black"/>
<path d="M11.0788 6.37537C11.3563 5.29721 12.3344 4.5 13.5 4.5C14.8807 4.5 16 5.61929 16 7C16 8.39728 14.7593 9.5 13.5 9.5H0.5C0.223858 9.5 0 9.27614 0 9C0 8.72386 0.223858 8.5 0.5 8.5H13.5C14.2407 8.5 15 7.81186 15 7C15 6.17157 14.3284 5.5 13.5 5.5C12.8017 5.5 12.2138 5.97756 12.0472 6.62463C11.9784 6.89206 11.7058 7.05305 11.4384 6.98422C11.171 6.91539 11.01 6.6428 11.0788 6.37537Z" fill="black"/>
<path d="M2.5 10.5C2.5 10.2239 2.72386 10 3 10L11 10C12.1046 10 13 10.8954 13 12C13 13.1046 12.1046 14 11 14C10.1284 14 9.38825 13.4427 9.11393 12.6666C9.02191 12.4063 9.15837 12.1206 9.41873 12.0286C9.67909 11.9366 9.96475 12.073 10.0568 12.3334C10.1943 12.7224 10.5654 13 11 13C11.5523 13 12 12.5523 12 12C12 11.4477 11.5523 11 11 11L3 11C2.72386 11 2.5 10.7761 2.5 10.5Z" fill="black"/>
</svg>
