<svg width="16" height="16" viewBox="0 0 16 16" fill="none" xmlns="http://www.w3.org/2000/svg">
<path d="M9.07998 9.375C8.94616 9.36987 8.81301 9.39624 8.69125 9.452C8.56949 9.50775 8.46253 9.59133 8.37898 9.696C8.20598 9.91 8.11899 10.181 8.11899 10.509C8.11899 10.839 8.20498 11.111 8.37698 11.323C8.54898 11.536 8.78299 11.642 9.07899 11.642C9.37799 11.642 9.61198 11.536 9.78298 11.325C9.95398 11.114 10.039 10.841 10.039 10.509C10.039 10.172 9.95399 9.899 9.78399 9.69C9.61598 9.479 9.38098 9.375 9.07998 9.375ZM9.07998 11.23C8.76598 11.23 8.60798 10.989 8.60798 10.507C8.60798 10.025 8.76498 9.784 9.07998 9.784C9.39398 9.784 9.55198 10.025 9.55198 10.507C9.55098 10.99 9.39398 11.23 9.07998 11.23ZM7.01198 8.18C7.18298 7.969 7.26798 7.696 7.26798 7.364C7.26798 7.027 7.18298 6.754 7.01398 6.545C6.84398 6.336 6.60898 6.231 6.30798 6.231C6.01398 6.231 5.77998 6.338 5.60698 6.552C5.43398 6.766 5.34698 7.037 5.34698 7.365C5.34698 7.695 5.43298 7.967 5.60498 8.179C5.77698 8.392 6.01098 8.498 6.30698 8.498C6.60598 8.498 6.84098 8.392 7.01198 8.18ZM5.83598 7.364C5.83598 6.882 5.99298 6.641 6.30798 6.641C6.62298 6.641 6.77998 6.882 6.77998 7.364C6.77998 7.846 6.62298 8.087 6.30798 8.087C5.99298 8.087 5.83598 7.846 5.83598 7.364ZM9.32198 6.273C9.25632 6.23317 9.17754 6.22102 9.10293 6.23921C9.02832 6.25739 8.96396 6.30443 8.92398 6.37L5.96898 11.201C5.94245 11.2449 5.92804 11.2951 5.92721 11.3463C5.92639 11.3976 5.93919 11.4482 5.9643 11.493C5.98941 11.5377 6.02593 11.575 6.07015 11.601C6.11437 11.627 6.16469 11.6408 6.21598 11.641C6.26568 11.6413 6.3146 11.6286 6.35791 11.6042C6.40123 11.5799 6.43744 11.5446 6.46298 11.502L9.41798 6.671C9.43788 6.63858 9.45118 6.60256 9.45712 6.56499C9.46307 6.52742 9.46153 6.48904 9.45261 6.45207C9.4437 6.41509 9.42757 6.38024 9.40515 6.34951C9.38273 6.31878 9.35447 6.29278 9.32198 6.273Z" fill="black"/>
<path d="M7.69399 0.213989C7.69399 0.213989 2.50299 7.72599 2.50299 10.595C2.50299 13.464 4.82499 15.785 7.69399 15.785C10.563 15.785 12.885 13.464 12.885 10.595C12.885 7.72599 7.69399 0.213989 7.69399 0.213989ZM10.648 12.033C10.252 12.041 10.025 12.113 9.18299 12.384L9.06299 12.422C8.48699 12.652 8.00799 12.777 7.71699 12.777C7.22699 12.777 6.41899 12.439 6.41099 12.435L6.24699 12.381C5.36399 12.098 5.15399 12.031 4.80099 12.027C4.47899 12.027 4.15599 12.08 3.81599 12.187C3.59071 11.6751 3.47327 11.1223 3.47099 10.563C3.47099 8.98199 5.70699 4.97099 7.69199 1.90299C9.67699 4.97199 11.914 8.98399 11.914 10.563C11.914 11.108 11.799 11.652 11.572 12.181C11.2727 12.0873 10.9615 12.0375 10.648 12.033Z" fill="black"/>
</svg>
